<?xml version="1.0" encoding="UTF-8"?>
<svg xmlns="http://www.w3.org/2000/svg" xmlns:xlink="http://www.w3.org/1999/xlink" width="38pt" height="32pt" viewBox="0 0 38 32" version="1.1">
<g id="surface1">
<path style=" stroke:none;fill-rule:evenodd;fill:rgb(21.176471%,27.058824%,28.235294%);fill-opacity:1;" d="M 5.730469 25.894531 L 5.730469 23.457031 C 5.730469 23.140625 5.933594 22.882812 6.261719 22.882812 L 6.355469 22.882812 C 6.683594 22.882812 6.882812 23.140625 6.882812 23.457031 L 6.882812 28.585938 C 6.882812 29.835938 6.265625 30.828125 5.191406 31.464844 C 4.703125 31.753906 4.140625 31.910156 3.566406 31.90625 L 3.339844 31.90625 C 2.09375 31.90625 1.101562 31.289062 0.46875 30.214844 C 0.175781 29.722656 0.0234375 29.15625 0.0273438 28.585938 L 0.0273438 28.355469 C 0.0273438 27.105469 0.640625 26.113281 1.714844 25.476562 C 2.207031 25.183594 2.769531 25.03125 3.339844 25.03125 L 3.566406 25.03125 C 4.414062 25.03125 5.128906 25.359375 5.730469 25.894531 Z M 1.175781 28.46875 C 1.175781 29.375 1.613281 30.050781 2.402344 30.484375 C 2.722656 30.660156 3.066406 30.753906 3.433594 30.753906 C 4.316406 30.753906 4.972656 30.335938 5.425781 29.585938 C 5.632812 29.234375 5.730469 28.851562 5.730469 28.445312 C 5.730469 27.664062 5.363281 27.054688 4.734375 26.597656 C 4.351562 26.324219 3.921875 26.1875 3.453125 26.1875 C 2.492188 26.1875 1.796875 26.675781 1.378906 27.542969 C 1.242188 27.835938 1.175781 28.144531 1.175781 28.46875 Z M 10.871094 25.03125 L 11.03125 25.03125 C 12.363281 25.03125 13.378906 25.679688 14.019531 26.847656 C 14.277344 27.3125 14.414062 27.824219 14.414062 28.355469 L 14.414062 28.585938 C 14.414062 29.835938 13.800781 30.832031 12.726562 31.464844 C 12.226562 31.753906 11.675781 31.90625 11.101562 31.90625 L 10.871094 31.90625 C 9.625 31.90625 8.632812 31.289062 8 30.214844 C 7.710938 29.722656 7.554688 29.15625 7.558594 28.585938 L 7.558594 28.355469 C 7.558594 27.105469 8.175781 26.113281 9.246094 25.476562 C 9.746094 25.179688 10.292969 25.03125 10.871094 25.03125 Z M 8.707031 28.46875 C 8.707031 29.347656 9.136719 29.992188 9.875 30.445312 C 10.222656 30.65625 10.605469 30.753906 11.007812 30.753906 C 11.875 30.753906 12.511719 30.316406 12.957031 29.585938 C 13.167969 29.234375 13.265625 28.851562 13.265625 28.445312 C 13.265625 27.632812 12.871094 27.007812 12.203125 26.558594 C 11.835938 26.3125 11.429688 26.1875 10.988281 26.1875 C 10.023438 26.1875 9.328125 26.675781 8.914062 27.542969 C 8.773438 27.835938 8.707031 28.144531 8.707031 28.46875 Z M 19.195312 26.277344 C 19.023438 26.195312 18.699219 26.171875 18.511719 26.164062 C 17.550781 26.125 16.855469 26.667969 16.445312 27.519531 C 16.304688 27.8125 16.242188 28.121094 16.242188 28.445312 C 16.242188 29.433594 16.757812 30.125 17.636719 30.546875 C 17.957031 30.703125 18.375 30.730469 18.722656 30.730469 C 19.035156 30.730469 19.46875 30.542969 19.742188 30.410156 L 19.792969 30.386719 L 20.003906 30.386719 L 20.027344 30.394531 C 20.289062 30.449219 20.484375 30.613281 20.484375 30.894531 L 20.484375 31.011719 C 20.484375 31.710938 19.207031 31.871094 18.71875 31.90625 C 16.996094 32.027344 15.707031 31.078125 15.214844 29.429688 C 15.128906 29.144531 15.089844 28.859375 15.089844 28.5625 L 15.089844 28.332031 C 15.089844 27.082031 15.710938 26.09375 16.78125 25.453125 C 17.277344 25.160156 17.828125 25.011719 18.40625 25.011719 L 18.632812 25.011719 C 19.246094 25.011719 19.8125 25.183594 20.316406 25.53125 L 20.359375 25.558594 L 20.382812 25.601562 C 20.4375 25.695312 20.484375 25.800781 20.484375 25.90625 L 20.484375 26.019531 C 20.484375 26.316406 20.265625 26.472656 20 26.523438 L 19.980469 26.527344 L 19.910156 26.527344 C 19.738281 26.527344 19.351562 26.351562 19.195312 26.277344 Z M 22.925781 27.058594 C 23.375 26.609375 23.824219 26.164062 24.277344 25.722656 C 24.402344 25.597656 24.878906 25.078125 25.070312 25.078125 L 25.273438 25.078125 L 25.296875 25.082031 C 25.5625 25.136719 25.757812 25.304688 25.757812 25.585938 L 25.757812 25.703125 C 25.757812 25.894531 25.53125 26.117188 25.40625 26.25 C 25.144531 26.53125 24.867188 26.800781 24.59375 27.078125 L 23.207031 28.492188 C 23.804688 29.09375 24.402344 29.695312 24.996094 30.300781 C 25.160156 30.46875 25.324219 30.636719 25.484375 30.804688 C 25.542969 30.867188 25.625 30.941406 25.675781 31.023438 C 25.726562 31.101562 25.757812 31.191406 25.757812 31.285156 L 25.757812 31.40625 L 25.75 31.433594 C 25.6875 31.695312 25.519531 31.90625 25.230469 31.90625 L 25.136719 31.90625 C 24.945312 31.90625 24.730469 31.691406 24.601562 31.566406 C 24.332031 31.3125 24.074219 31.046875 23.808594 30.789062 L 22.925781 29.917969 L 22.925781 31.308594 C 22.925781 31.628906 22.726562 31.886719 22.398438 31.886719 L 22.308594 31.886719 C 21.976562 31.886719 21.777344 31.628906 21.777344 31.308594 L 21.777344 23.480469 C 21.777344 23.160156 21.976562 22.90625 22.308594 22.90625 L 22.398438 22.90625 C 22.726562 22.90625 22.925781 23.160156 22.925781 23.480469 Z M 37.261719 25.078125 L 37.378906 25.078125 C 37.722656 25.078125 37.953125 25.3125 37.953125 25.65625 C 37.953125 26.132812 37.496094 26.253906 37.101562 26.253906 C 36.585938 26.253906 36.09375 26.570312 35.738281 26.921875 C 35.292969 27.359375 35.097656 27.921875 35.097656 28.539062 L 35.097656 31.332031 C 35.097656 31.648438 34.898438 31.90625 34.570312 31.90625 L 34.476562 31.90625 C 34.148438 31.90625 33.949219 31.652344 33.949219 31.332031 L 33.949219 28.378906 C 33.949219 27.246094 34.5 26.320312 35.417969 25.671875 C 35.964844 25.28125 36.59375 25.078125 37.261719 25.078125 Z M 29.089844 30.609375 C 29.507812 30.757812 29.984375 30.734375 30.414062 30.660156 C 30.632812 30.566406 31.195312 30.320312 31.402344 30.359375 L 31.433594 30.363281 L 31.464844 30.378906 C 31.589844 30.4375 31.710938 30.527344 31.773438 30.65625 C 31.925781 30.957031 31.851562 31.257812 31.554688 31.429688 L 31.457031 31.488281 C 30.367188 32.121094 29.207031 32.03125 28.117188 31.441406 C 27.597656 31.160156 27.203125 30.742188 26.90625 30.230469 L 26.839844 30.113281 C 26.140625 28.898438 26.234375 27.617188 27.023438 26.460938 C 27.296875 26.0625 27.652344 25.753906 28.070312 25.511719 L 28.226562 25.421875 C 29.253906 24.824219 30.355469 24.867188 31.410156 25.386719 C 31.976562 25.667969 32.4375 26.085938 32.753906 26.636719 L 32.8125 26.734375 C 33.042969 27.136719 32.742188 27.484375 32.4375 27.722656 C 32.078125 28 31.71875 28.332031 31.375 28.625 C 30.613281 29.289062 29.851562 29.949219 29.089844 30.609375 Z M 28.101562 29.914062 C 28.953125 29.179688 29.808594 28.445312 30.660156 27.710938 C 30.949219 27.457031 31.269531 27.199219 31.558594 26.933594 C 31.324219 26.640625 30.9375 26.429688 30.609375 26.304688 C 29.945312 26.050781 29.292969 26.136719 28.683594 26.488281 C 27.886719 26.949219 27.546875 27.683594 27.578125 28.597656 C 27.589844 28.957031 27.6875 29.304688 27.878906 29.609375 C 27.945312 29.71875 28.019531 29.820312 28.101562 29.914062 Z M 21.894531 6.808594 L 25.285156 6.808594 L 25.285156 10.285156 L 27.003906 10.285156 C 27.796875 10.285156 28.609375 10.144531 29.359375 9.890625 C 29.730469 9.765625 30.144531 9.589844 30.507812 9.371094 C 30.027344 8.742188 29.785156 7.953125 29.710938 7.171875 C 29.613281 6.109375 29.828125 4.726562 30.542969 3.898438 L 30.902344 3.484375 L 31.328125 3.824219 C 32.398438 4.6875 33.296875 5.894531 33.457031 7.265625 C 34.746094 6.886719 36.257812 6.976562 37.394531 7.632812 L 37.859375 7.902344 L 37.613281 8.382812 C 36.652344 10.261719 34.644531 10.84375 32.679688 10.742188 C 29.742188 18.078125 23.34375 21.554688 15.585938 21.554688 C 11.578125 21.554688 7.902344 20.050781 5.808594 16.488281 L 5.773438 16.429688 L 5.46875 15.808594 C 4.761719 14.238281 4.527344 12.519531 4.6875 10.800781 L 4.734375 10.285156 L 7.636719 10.285156 L 7.636719 6.808594 L 11.03125 6.808594 L 11.03125 3.40625 L 17.820312 3.40625 L 17.820312 0.00390625 L 21.894531 0.00390625 L 21.894531 6.808594 "/>
<path style=" stroke:none;fill-rule:evenodd;fill:rgb(13.333333%,62.745098%,78.431373%);fill-opacity:1;" d="M 32.890625 8.09375 C 33.117188 6.320312 31.792969 4.929688 30.972656 4.269531 C 30.027344 5.363281 29.878906 8.238281 31.363281 9.449219 C 30.535156 10.183594 28.789062 10.855469 27.003906 10.855469 L 5.25 10.855469 C 5.078125 12.722656 5.402344 14.445312 6.152344 15.921875 L 6.398438 16.375 C 6.554688 16.640625 6.726562 16.898438 6.914062 17.144531 C 7.804688 17.203125 8.632812 17.222656 9.386719 17.207031 C 10.867188 17.171875 12.078125 16.996094 12.996094 16.679688 C 13.128906 16.636719 13.273438 16.710938 13.320312 16.84375 C 13.367188 16.976562 13.296875 17.125 13.164062 17.175781 C 13.042969 17.214844 12.917969 17.257812 12.785156 17.292969 C 12.0625 17.5 11.289062 17.640625 10.289062 17.703125 C 10.351562 17.703125 10.230469 17.710938 10.226562 17.710938 C 10.195312 17.710938 10.152344 17.71875 10.117188 17.71875 C 9.722656 17.742188 9.300781 17.746094 8.867188 17.746094 C 8.390625 17.746094 7.925781 17.738281 7.402344 17.710938 L 7.390625 17.71875 C 9.203125 19.761719 12.035156 20.984375 15.589844 20.984375 C 23.105469 20.984375 29.484375 17.644531 32.308594 10.144531 C 34.308594 10.351562 36.234375 9.839844 37.109375 8.125 C 35.714844 7.316406 33.921875 7.574219 32.890625 8.09375 "/>
<path style=" stroke:none;fill-rule:evenodd;fill:rgb(21.568627%,69.411765%,85.098039%);fill-opacity:1;" d="M 32.890625 8.09375 C 33.117188 6.320312 31.792969 4.929688 30.972656 4.269531 C 30.027344 5.363281 29.878906 8.238281 31.363281 9.449219 C 30.535156 10.183594 28.789062 10.855469 27.003906 10.855469 L 6.539062 10.855469 C 6.449219 13.71875 7.507812 15.890625 9.386719 17.207031 C 10.867188 17.171875 12.078125 16.996094 12.996094 16.679688 C 13.128906 16.636719 13.273438 16.710938 13.320312 16.84375 C 13.367188 16.976562 13.296875 17.125 13.164062 17.175781 C 13.042969 17.214844 12.917969 17.257812 12.785156 17.292969 C 12.0625 17.5 11.222656 17.65625 10.222656 17.71875 C 10.222656 17.71875 10.199219 17.695312 10.199219 17.695312 C 12.757812 19.011719 16.46875 19.007812 20.722656 17.371094 C 25.492188 15.53125 29.929688 12.03125 33.027344 8.03125 C 32.980469 8.050781 32.933594 8.074219 32.890625 8.09375 "/>
<path style=" stroke:none;fill-rule:evenodd;fill:rgb(10.588235%,50.588235%,64.705882%);fill-opacity:1;" d="M 5.292969 13.125 C 5.425781 14.128906 5.71875 15.066406 6.152344 15.921875 L 6.398438 16.375 C 6.554688 16.640625 6.726562 16.898438 6.914062 17.144531 C 7.808594 17.203125 8.632812 17.222656 9.386719 17.207031 C 10.867188 17.171875 12.078125 16.996094 12.996094 16.679688 C 13.128906 16.636719 13.273438 16.710938 13.320312 16.84375 C 13.367188 16.976562 13.296875 17.125 13.164062 17.175781 C 13.042969 17.214844 12.917969 17.257812 12.785156 17.292969 C 12.0625 17.5 11.226562 17.648438 10.226562 17.710938 C 10.195312 17.710938 10.132812 17.714844 10.101562 17.714844 C 9.707031 17.738281 9.285156 17.75 8.851562 17.75 C 8.378906 17.75 7.894531 17.742188 7.371094 17.714844 C 9.183594 19.757812 12.035156 20.984375 15.589844 20.984375 C 22.023438 20.984375 27.625 18.539062 30.875 13.125 L 5.292969 13.125 "/>
<path style=" stroke:none;fill-rule:evenodd;fill:rgb(11.372549%,56.862745%,70.588235%);fill-opacity:1;" d="M 6.734375 13.125 C 7.117188 14.886719 8.042969 16.265625 9.386719 17.207031 C 10.867188 17.171875 12.078125 16.996094 12.996094 16.679688 C 13.128906 16.636719 13.273438 16.710938 13.320312 16.84375 C 13.367188 16.976562 13.296875 17.125 13.164062 17.175781 C 13.042969 17.214844 12.917969 17.257812 12.785156 17.292969 C 12.0625 17.5 11.210938 17.648438 10.210938 17.710938 C 12.769531 19.027344 16.46875 19.007812 20.722656 17.371094 C 23.292969 16.378906 25.769531 14.902344 27.992188 13.125 L 6.734375 13.125 "/>
<path style=" stroke:none;fill-rule:evenodd;fill:rgb(13.72549%,63.921569%,76.078431%);fill-opacity:1;" d="M 8.203125 7.375 L 11.144531 7.375 L 11.144531 10.324219 L 8.203125 10.324219 Z M 8.449219 7.621094 L 8.679688 7.621094 L 8.679688 10.078125 L 8.449219 10.078125 Z M 8.882812 7.621094 L 9.125 7.621094 L 9.125 10.078125 L 8.882812 10.078125 Z M 9.328125 7.621094 L 9.570312 7.621094 L 9.570312 10.078125 L 9.328125 10.078125 Z M 9.777344 7.621094 L 10.015625 7.621094 L 10.015625 10.078125 L 9.777344 10.078125 Z M 10.222656 7.621094 L 10.460938 7.621094 L 10.460938 10.078125 L 10.222656 10.078125 Z M 10.667969 7.621094 L 10.898438 7.621094 L 10.898438 10.078125 L 10.667969 10.078125 Z M 11.597656 3.972656 L 14.539062 3.972656 L 14.539062 6.921875 L 11.597656 6.921875 Z M 11.84375 4.21875 L 12.074219 4.21875 L 12.074219 6.675781 L 11.84375 6.675781 Z M 12.277344 4.21875 L 12.519531 4.21875 L 12.519531 6.675781 L 12.277344 6.675781 Z M 12.722656 4.21875 L 12.964844 4.21875 L 12.964844 6.675781 L 12.722656 6.675781 Z M 13.167969 4.21875 L 13.410156 4.21875 L 13.410156 6.675781 L 13.167969 6.675781 Z M 13.617188 4.21875 L 13.855469 4.21875 L 13.855469 6.675781 L 13.617188 6.675781 Z M 14.0625 4.21875 L 14.292969 4.21875 L 14.292969 6.675781 L 14.0625 6.675781 Z M 14.0625 4.21875 "/>
<path style=" stroke:none;fill-rule:evenodd;fill:rgb(20.392157%,73.333333%,87.058824%);fill-opacity:1;" d="M 11.597656 7.375 L 14.539062 7.375 L 14.539062 10.324219 L 11.597656 10.324219 Z M 11.84375 7.621094 L 12.074219 7.621094 L 12.074219 10.078125 L 11.84375 10.078125 Z M 12.277344 7.621094 L 12.519531 7.621094 L 12.519531 10.078125 L 12.277344 10.078125 Z M 12.722656 7.621094 L 12.964844 7.621094 L 12.964844 10.078125 L 12.722656 10.078125 Z M 13.167969 7.621094 L 13.410156 7.621094 L 13.410156 10.078125 L 13.167969 10.078125 Z M 13.617188 7.621094 L 13.855469 7.621094 L 13.855469 10.078125 L 13.617188 10.078125 Z M 14.0625 7.621094 L 14.292969 7.621094 L 14.292969 10.078125 L 14.0625 10.078125 Z M 14.0625 7.621094 "/>
<path style=" stroke:none;fill-rule:evenodd;fill:rgb(13.72549%,63.921569%,76.078431%);fill-opacity:1;" d="M 14.992188 7.375 L 17.933594 7.375 L 17.933594 10.324219 L 14.992188 10.324219 Z M 15.234375 7.621094 L 15.46875 7.621094 L 15.46875 10.078125 L 15.234375 10.078125 Z M 15.671875 7.621094 L 15.914062 7.621094 L 15.914062 10.078125 L 15.671875 10.078125 Z M 16.117188 7.621094 L 16.359375 7.621094 L 16.359375 10.078125 L 16.117188 10.078125 Z M 16.5625 7.621094 L 16.804688 7.621094 L 16.804688 10.078125 L 16.5625 10.078125 Z M 17.007812 7.621094 L 17.25 7.621094 L 17.25 10.078125 L 17.007812 10.078125 Z M 17.457031 7.621094 L 17.6875 7.621094 L 17.6875 10.078125 L 17.457031 10.078125 Z M 17.457031 7.621094 "/>
<path style=" stroke:none;fill-rule:evenodd;fill:rgb(20.392157%,73.333333%,87.058824%);fill-opacity:1;" d="M 14.992188 3.972656 L 17.933594 3.972656 L 17.933594 6.921875 L 14.992188 6.921875 Z M 15.234375 4.21875 L 15.46875 4.21875 L 15.46875 6.675781 L 15.234375 6.675781 Z M 15.671875 4.21875 L 15.914062 4.21875 L 15.914062 6.675781 L 15.671875 6.675781 Z M 16.117188 4.21875 L 16.359375 4.21875 L 16.359375 6.675781 L 16.117188 6.675781 Z M 16.5625 4.21875 L 16.804688 4.21875 L 16.804688 6.675781 L 16.5625 6.675781 Z M 17.007812 4.21875 L 17.25 4.21875 L 17.25 6.675781 L 17.007812 6.675781 Z M 17.457031 4.21875 L 17.6875 4.21875 L 17.6875 6.675781 L 17.457031 6.675781 Z M 18.386719 7.375 L 21.328125 7.375 L 21.328125 10.324219 L 18.386719 10.324219 Z M 18.628906 7.621094 L 18.863281 7.621094 L 18.863281 10.078125 L 18.628906 10.078125 Z M 19.066406 7.621094 L 19.308594 7.621094 L 19.308594 10.078125 L 19.066406 10.078125 Z M 19.511719 7.621094 L 19.753906 7.621094 L 19.753906 10.078125 L 19.511719 10.078125 Z M 19.957031 7.621094 L 20.199219 7.621094 L 20.199219 10.078125 L 19.957031 10.078125 Z M 20.402344 7.621094 L 20.644531 7.621094 L 20.644531 10.078125 L 20.402344 10.078125 Z M 20.851562 7.621094 L 21.082031 7.621094 L 21.082031 10.078125 L 20.851562 10.078125 Z M 20.851562 7.621094 "/>
<path style=" stroke:none;fill-rule:evenodd;fill:rgb(13.72549%,63.921569%,76.078431%);fill-opacity:1;" d="M 18.386719 3.972656 L 21.328125 3.972656 L 21.328125 6.921875 L 18.386719 6.921875 Z M 18.628906 4.21875 L 18.863281 4.21875 L 18.863281 6.675781 L 18.628906 6.675781 Z M 19.066406 4.21875 L 19.308594 4.21875 L 19.308594 6.675781 L 19.066406 6.675781 Z M 19.511719 4.21875 L 19.753906 4.21875 L 19.753906 6.675781 L 19.511719 6.675781 Z M 19.957031 4.21875 L 20.199219 4.21875 L 20.199219 6.675781 L 19.957031 6.675781 Z M 20.402344 4.21875 L 20.644531 4.21875 L 20.644531 6.675781 L 20.402344 6.675781 Z M 20.851562 4.21875 L 21.082031 4.21875 L 21.082031 6.675781 L 20.851562 6.675781 Z M 20.851562 4.21875 "/>
<path style=" stroke:none;fill-rule:evenodd;fill:rgb(20.392157%,73.333333%,87.058824%);fill-opacity:1;" d="M 18.386719 0.570312 L 21.328125 0.570312 L 21.328125 3.519531 L 18.386719 3.519531 Z M 18.628906 0.816406 L 18.863281 0.816406 L 18.863281 3.273438 L 18.628906 3.273438 Z M 19.066406 0.816406 L 19.308594 0.816406 L 19.308594 3.273438 L 19.066406 3.273438 Z M 19.511719 0.816406 L 19.753906 0.816406 L 19.753906 3.273438 L 19.511719 3.273438 Z M 19.957031 0.816406 L 20.199219 0.816406 L 20.199219 3.273438 L 19.957031 3.273438 Z M 20.402344 0.816406 L 20.644531 0.816406 L 20.644531 3.273438 L 20.402344 3.273438 Z M 20.851562 0.816406 L 21.082031 0.816406 L 21.082031 3.273438 L 20.851562 3.273438 Z M 20.851562 0.816406 "/>
<path style=" stroke:none;fill-rule:evenodd;fill:rgb(13.72549%,63.921569%,76.078431%);fill-opacity:1;" d="M 21.78125 7.375 L 24.722656 7.375 L 24.722656 10.324219 L 21.78125 10.324219 Z M 22.023438 7.621094 L 22.257812 7.621094 L 22.257812 10.078125 L 22.023438 10.078125 Z M 22.460938 7.621094 L 22.703125 7.621094 L 22.703125 10.078125 L 22.460938 10.078125 Z M 22.90625 7.621094 L 23.148438 7.621094 L 23.148438 10.078125 L 22.90625 10.078125 Z M 23.351562 7.621094 L 23.59375 7.621094 L 23.59375 10.078125 L 23.351562 10.078125 Z M 23.796875 7.621094 L 24.039062 7.621094 L 24.039062 10.078125 L 23.796875 10.078125 Z M 24.242188 7.621094 L 24.476562 7.621094 L 24.476562 10.078125 L 24.242188 10.078125 Z M 24.242188 7.621094 "/>
<path style=" stroke:none;fill-rule:evenodd;fill:rgb(82.745098%,92.54902%,92.54902%);fill-opacity:1;" d="M 14.355469 15.105469 C 14.648438 15.101562 14.917969 15.257812 15.066406 15.507812 C 15.214844 15.761719 15.214844 16.078125 15.066406 16.328125 C 14.917969 16.582031 14.648438 16.738281 14.355469 16.734375 C 13.910156 16.726562 13.554688 16.363281 13.554688 15.917969 C 13.554688 15.472656 13.910156 15.113281 14.355469 15.105469 "/>
<path style=" stroke:none;fill-rule:evenodd;fill:rgb(21.176471%,27.058824%,28.235294%);fill-opacity:1;" d="M 14.355469 15.335938 C 14.429688 15.335938 14.5 15.351562 14.566406 15.375 C 14.472656 15.429688 14.425781 15.539062 14.453125 15.644531 C 14.484375 15.746094 14.574219 15.820312 14.683594 15.820312 C 14.773438 15.820312 14.851562 15.769531 14.890625 15.695312 C 14.988281 15.933594 14.921875 16.207031 14.722656 16.371094 C 14.527344 16.53125 14.246094 16.546875 14.03125 16.402344 C 13.820312 16.261719 13.722656 15.996094 13.796875 15.75 C 13.871094 15.503906 14.097656 15.335938 14.355469 15.335938 M 0 13.421875 L 37.75 13.421875 C 36.929688 13.210938 35.152344 12.929688 35.445312 11.847656 C 33.949219 13.582031 30.34375 13.066406 29.433594 12.210938 C 28.421875 13.683594 22.523438 13.125 22.113281 11.976562 C 20.84375 13.46875 16.910156 13.46875 15.636719 11.976562 C 15.226562 13.125 9.328125 13.683594 8.316406 12.210938 C 7.40625 13.066406 3.800781 13.582031 2.308594 11.847656 C 2.601562 12.929688 0.820312 13.210938 0 13.421875 "/>
<path style=" stroke:none;fill-rule:evenodd;fill:rgb(74.117647%,85.098039%,84.313725%);fill-opacity:1;" d="M 16.511719 20.96875 C 14.5 20.011719 13.398438 18.710938 12.785156 17.292969 C 12.039062 17.507812 11.140625 17.644531 10.097656 17.703125 C 9.707031 17.726562 9.292969 17.734375 8.859375 17.734375 C 8.359375 17.734375 7.832031 17.722656 7.277344 17.691406 C 9.121094 19.539062 11.390625 20.960938 15.589844 20.984375 C 15.898438 20.984375 16.207031 20.980469 16.511719 20.96875 "/>
<path style=" stroke:none;fill-rule:evenodd;fill:rgb(82.745098%,92.54902%,92.54902%);fill-opacity:1;" d="M 13.53125 18.601562 C 13.253906 18.226562 12.984375 17.75 12.785156 17.292969 C 12.039062 17.507812 11.140625 17.644531 10.097656 17.703125 C 10.816406 18.09375 11.839844 18.453125 13.53125 18.601562 "/>
</g>
</svg>
