<?xml version="1.0" encoding="UTF-8"?>
<svg xmlns="http://www.w3.org/2000/svg" xmlns:xlink="http://www.w3.org/1999/xlink" width="48pt" height="24pt" viewBox="0 0 48 24" version="1.1">
<defs>
<clipPath id="clip1">
  <path d="M 5 3 L 42 3 L 42 23 L 5 23 Z M 5 3 "/>
</clipPath>
<clipPath id="clip2">
  <path d="M 5.453125 12.792969 C 5.453125 18.019531 13.617188 22.253906 23.6875 22.253906 C 33.761719 22.253906 41.925781 18.019531 41.925781 12.792969 C 41.925781 7.566406 33.761719 3.332031 23.6875 3.332031 C 13.617188 3.332031 5.453125 7.566406 5.453125 12.792969 "/>
</clipPath>
<radialGradient id="radial0" gradientUnits="userSpaceOnUse" cx="0" cy="0" fx="0" fy="0" r="1" gradientTransform="matrix(23.94483,0,0,23.617932,16.402844,6.658454)">
<stop offset="0" style="stop-color:rgb(68.235294%,69.803922%,83.529412%);stop-opacity:1;"/>
<stop offset="0.3" style="stop-color:rgb(68.235294%,69.803922%,83.529412%);stop-opacity:1;"/>
<stop offset="0.75" style="stop-color:rgb(28.235294%,29.803922%,53.72549%);stop-opacity:1;"/>
<stop offset="1" style="stop-color:rgb(28.235294%,29.803922%,53.72549%);stop-opacity:1;"/>
</radialGradient>
</defs>
<g id="surface1">
<g clip-path="url(#clip1)" clip-rule="nonzero">
<g clip-path="url(#clip2)" clip-rule="nonzero">
<path style=" stroke:none;fill-rule:nonzero;fill:url(#radial0);" d="M 5.453125 12.792969 C 5.453125 18.019531 13.617188 22.253906 23.6875 22.253906 C 33.761719 22.253906 41.925781 18.019531 41.925781 12.792969 C 41.925781 7.566406 33.761719 3.332031 23.6875 3.332031 C 13.617188 3.332031 5.453125 7.566406 5.453125 12.792969 "/>
</g>
</g>
<path style=" stroke:none;fill-rule:nonzero;fill:rgb(46.666667%,48.235294%,70.196078%);fill-opacity:1;" d="M 23.6875 21.550781 C 33.367188 21.550781 41.210938 17.628906 41.210938 12.792969 C 41.210938 7.957031 33.367188 4.035156 23.6875 4.035156 C 14.011719 4.035156 6.167969 7.957031 6.167969 12.792969 C 6.167969 17.628906 14.011719 21.550781 23.6875 21.550781 "/>
<path style=" stroke:none;fill-rule:nonzero;fill:rgb(0%,0%,0%);fill-opacity:1;" d="M 15.363281 13.878906 C 16.15625 13.878906 16.75 13.734375 17.128906 13.449219 C 17.5 13.167969 17.757812 12.675781 17.890625 11.996094 C 18.015625 11.355469 17.96875 10.910156 17.75 10.671875 C 17.523438 10.425781 17.039062 10.300781 16.304688 10.300781 L 15.03125 10.300781 L 14.328125 13.878906 Z M 11.203125 18.285156 C 11.144531 18.285156 11.085938 18.261719 11.050781 18.214844 C 11.011719 18.171875 10.996094 18.113281 11.007812 18.054688 L 12.875 8.574219 C 12.894531 8.480469 12.976562 8.414062 13.070312 8.414062 L 17.097656 8.414062 C 18.363281 8.414062 19.304688 8.753906 19.898438 9.421875 C 20.492188 10.09375 20.675781 11.035156 20.441406 12.214844 C 20.347656 12.695312 20.1875 13.140625 19.960938 13.542969 C 19.730469 13.941406 19.433594 14.3125 19.066406 14.644531 C 18.632812 15.046875 18.136719 15.339844 17.601562 15.511719 C 17.074219 15.679688 16.394531 15.765625 15.585938 15.765625 L 13.957031 15.765625 L 13.492188 18.128906 C 13.472656 18.21875 13.390625 18.285156 13.296875 18.285156 Z M 11.203125 18.285156 "/>
<path style=" stroke:none;fill-rule:nonzero;fill:rgb(100%,100%,100%);fill-opacity:1;" d="M 15.195312 10.496094 L 16.304688 10.496094 C 17.191406 10.496094 17.496094 10.6875 17.601562 10.800781 C 17.773438 10.992188 17.808594 11.390625 17.695312 11.957031 C 17.570312 12.59375 17.339844 13.042969 17.007812 13.292969 C 16.667969 13.554688 16.113281 13.683594 15.363281 13.683594 L 14.566406 13.683594 Z M 17.097656 8.21875 L 13.070312 8.21875 C 12.882812 8.21875 12.71875 8.351562 12.683594 8.535156 L 10.8125 18.015625 C 10.792969 18.132812 10.820312 18.25 10.898438 18.339844 C 10.972656 18.429688 11.085938 18.480469 11.203125 18.480469 L 13.296875 18.480469 C 13.484375 18.480469 13.648438 18.347656 13.683594 18.167969 L 14.121094 15.960938 L 15.585938 15.960938 C 16.417969 15.960938 17.117188 15.871094 17.664062 15.695312 C 18.226562 15.515625 18.746094 15.210938 19.203125 14.785156 C 19.582031 14.441406 19.894531 14.054688 20.132812 13.636719 C 20.367188 13.21875 20.539062 12.753906 20.636719 12.25 C 20.882812 11.007812 20.683594 10.015625 20.046875 9.292969 C 19.414062 8.582031 18.421875 8.21875 17.097656 8.21875 M 14.089844 14.074219 L 15.363281 14.074219 C 16.207031 14.074219 16.835938 13.917969 17.25 13.605469 C 17.660156 13.289062 17.941406 12.765625 18.085938 12.03125 C 18.222656 11.328125 18.160156 10.832031 17.894531 10.539062 C 17.632812 10.25 17.101562 10.105469 16.304688 10.105469 L 14.871094 10.105469 L 14.089844 14.074219 M 17.097656 8.609375 C 18.308594 8.609375 19.191406 8.921875 19.75 9.550781 C 20.304688 10.179688 20.472656 11.054688 20.25 12.175781 C 20.15625 12.640625 20.003906 13.0625 19.785156 13.445312 C 19.570312 13.832031 19.285156 14.183594 18.933594 14.5 C 18.515625 14.886719 18.050781 15.160156 17.539062 15.324219 C 17.03125 15.488281 16.378906 15.570312 15.585938 15.570312 L 13.792969 15.570312 L 13.296875 18.089844 L 11.203125 18.089844 L 13.070312 8.609375 L 17.097656 8.609375 "/>
<path style=" stroke:none;fill-rule:nonzero;fill:rgb(0%,0%,0%);fill-opacity:1;" d="M 25.246094 15.765625 C 25.1875 15.765625 25.128906 15.738281 25.09375 15.695312 C 25.054688 15.648438 25.039062 15.589844 25.050781 15.535156 L 25.878906 11.339844 C 25.957031 10.9375 25.9375 10.652344 25.824219 10.53125 C 25.753906 10.457031 25.542969 10.332031 24.925781 10.332031 L 23.425781 10.332031 L 22.386719 15.609375 C 22.371094 15.699219 22.289062 15.765625 22.195312 15.765625 L 20.117188 15.765625 C 20.058594 15.765625 20 15.738281 19.964844 15.695312 C 19.925781 15.648438 19.910156 15.589844 19.921875 15.535156 L 21.789062 6.050781 C 21.808594 5.960938 21.890625 5.894531 21.984375 5.894531 L 24.0625 5.894531 C 24.121094 5.894531 24.179688 5.921875 24.214844 5.964844 C 24.253906 6.011719 24.269531 6.070312 24.257812 6.125 L 23.804688 8.414062 L 25.417969 8.414062 C 26.644531 8.414062 27.476562 8.628906 27.960938 9.066406 C 28.457031 9.515625 28.609375 10.230469 28.417969 11.195312 L 27.550781 15.609375 C 27.53125 15.699219 27.449219 15.765625 27.355469 15.765625 Z M 25.246094 15.765625 "/>
<path style=" stroke:none;fill-rule:nonzero;fill:rgb(100%,100%,100%);fill-opacity:1;" d="M 24.0625 5.699219 L 21.984375 5.699219 C 21.796875 5.699219 21.632812 5.832031 21.597656 6.015625 L 19.726562 15.496094 C 19.707031 15.609375 19.734375 15.730469 19.8125 15.820312 C 19.886719 15.910156 20 15.960938 20.117188 15.960938 L 22.195312 15.960938 C 22.382812 15.960938 22.546875 15.828125 22.582031 15.644531 L 23.589844 10.527344 L 24.925781 10.527344 C 25.542969 10.527344 25.671875 10.660156 25.675781 10.664062 C 25.714844 10.703125 25.765625 10.886719 25.683594 11.300781 L 24.855469 15.496094 C 24.832031 15.609375 24.863281 15.730469 24.941406 15.820312 C 25.015625 15.910156 25.125 15.960938 25.246094 15.960938 L 27.355469 15.960938 C 27.542969 15.960938 27.707031 15.828125 27.742188 15.644531 L 28.613281 11.234375 C 28.816406 10.199219 28.640625 9.421875 28.09375 8.921875 C 27.570312 8.449219 26.695312 8.21875 25.417969 8.21875 L 24.046875 8.21875 L 24.453125 6.164062 C 24.472656 6.050781 24.445312 5.929688 24.367188 5.839844 C 24.292969 5.75 24.179688 5.699219 24.0625 5.699219 M 24.0625 6.089844 L 23.566406 8.609375 L 25.417969 8.609375 C 26.582031 8.609375 27.386719 8.808594 27.828125 9.210938 C 28.269531 9.613281 28.402344 10.261719 28.226562 11.160156 L 27.355469 15.570312 L 25.246094 15.570312 L 26.070312 11.375 C 26.164062 10.898438 26.132812 10.574219 25.96875 10.398438 C 25.804688 10.226562 25.457031 10.140625 24.925781 10.140625 L 23.265625 10.140625 L 22.195312 15.570312 L 20.117188 15.570312 L 21.984375 6.089844 L 24.0625 6.089844 "/>
<path style=" stroke:none;fill-rule:nonzero;fill:rgb(0%,0%,0%);fill-opacity:1;" d="M 31.707031 13.878906 C 32.5 13.878906 33.097656 13.734375 33.472656 13.449219 C 33.84375 13.167969 34.101562 12.679688 34.234375 11.996094 C 34.359375 11.355469 34.3125 10.910156 34.09375 10.671875 C 33.867188 10.425781 33.382812 10.300781 32.648438 10.300781 L 31.378906 10.300781 L 30.671875 13.878906 Z M 27.546875 18.285156 C 27.488281 18.285156 27.433594 18.261719 27.394531 18.214844 C 27.355469 18.171875 27.339844 18.113281 27.351562 18.054688 L 29.222656 8.574219 C 29.238281 8.480469 29.320312 8.414062 29.414062 8.414062 L 33.441406 8.414062 C 34.707031 8.414062 35.648438 8.753906 36.242188 9.421875 C 36.835938 10.09375 37.019531 11.035156 36.789062 12.214844 C 36.691406 12.695312 36.53125 13.140625 36.304688 13.542969 C 36.078125 13.941406 35.777344 14.3125 35.414062 14.644531 C 34.976562 15.046875 34.480469 15.339844 33.945312 15.511719 C 33.417969 15.679688 32.742188 15.765625 31.929688 15.765625 L 30.300781 15.765625 L 29.835938 18.128906 C 29.816406 18.21875 29.734375 18.285156 29.640625 18.285156 Z M 27.546875 18.285156 "/>
<path style=" stroke:none;fill-rule:nonzero;fill:rgb(100%,100%,100%);fill-opacity:1;" d="M 31.539062 10.496094 L 32.648438 10.496094 C 33.535156 10.496094 33.839844 10.6875 33.945312 10.800781 C 34.121094 10.992188 34.152344 11.390625 34.039062 11.957031 C 33.914062 12.59375 33.683594 13.042969 33.351562 13.292969 C 33.011719 13.554688 32.457031 13.683594 31.707031 13.683594 L 30.914062 13.683594 Z M 33.441406 8.21875 L 29.414062 8.21875 C 29.226562 8.21875 29.0625 8.351562 29.027344 8.535156 L 27.160156 18.015625 C 27.136719 18.132812 27.167969 18.25 27.242188 18.339844 C 27.316406 18.429688 27.429688 18.480469 27.546875 18.480469 L 29.640625 18.480469 C 29.832031 18.480469 29.992188 18.347656 30.03125 18.167969 L 30.464844 15.960938 L 31.929688 15.960938 C 32.761719 15.960938 33.460938 15.871094 34.007812 15.695312 C 34.570312 15.515625 35.089844 15.210938 35.546875 14.785156 C 35.925781 14.441406 36.238281 14.054688 36.476562 13.636719 C 36.714844 13.21875 36.882812 12.753906 36.980469 12.25 C 37.226562 11.007812 37.027344 10.015625 36.390625 9.292969 C 35.757812 8.582031 34.765625 8.21875 33.441406 8.21875 M 30.433594 14.074219 L 31.707031 14.074219 C 32.550781 14.074219 33.179688 13.917969 33.59375 13.605469 C 34.003906 13.289062 34.285156 12.765625 34.429688 12.03125 C 34.566406 11.328125 34.503906 10.832031 34.238281 10.539062 C 33.976562 10.25 33.445312 10.105469 32.648438 10.105469 L 31.214844 10.105469 L 30.433594 14.074219 M 33.441406 8.609375 C 34.652344 8.609375 35.539062 8.921875 36.09375 9.550781 C 36.648438 10.179688 36.816406 11.054688 36.59375 12.175781 C 36.503906 12.640625 36.347656 13.0625 36.132812 13.445312 C 35.914062 13.832031 35.628906 14.183594 35.277344 14.5 C 34.859375 14.886719 34.394531 15.160156 33.886719 15.324219 C 33.375 15.488281 32.722656 15.570312 31.929688 15.570312 L 30.136719 15.570312 L 29.640625 18.089844 L 27.546875 18.089844 L 29.414062 8.609375 L 33.441406 8.609375 "/>
</g>
</svg>
