<?xml version="1.0" encoding="UTF-8"?>
<svg xmlns="http://www.w3.org/2000/svg" xmlns:xlink="http://www.w3.org/1999/xlink" width="196pt" height="48pt" viewBox="0 0 196 48" version="1.1">
<g id="surface1">
<path style=" stroke:none;fill-rule:nonzero;fill:rgb(29.019608%,29.019608%,33.333333%);fill-opacity:1;" d="M 63.800781 37.195312 C 61.726562 37.25 59.683594 36.667969 57.941406 35.535156 C 56.316406 34.460938 55.109375 32.855469 54.519531 30.992188 L 58.085938 29.675781 C 58.582031 30.820312 59.390625 31.800781 60.417969 32.503906 C 61.460938 33.207031 62.691406 33.570312 63.945312 33.546875 C 65.152344 33.609375 66.34375 33.246094 67.3125 32.523438 C 68.167969 31.804688 68.632812 30.722656 68.566406 29.605469 C 68.570312 29.089844 68.453125 28.582031 68.222656 28.125 C 68.019531 27.714844 67.753906 27.339844 67.4375 27.011719 C 67.039062 26.648438 66.585938 26.34375 66.09375 26.117188 C 65.484375 25.8125 64.984375 25.582031 64.582031 25.425781 C 64.183594 25.265625 63.59375 25.054688 62.816406 24.785156 C 61.847656 24.445312 61.121094 24.175781 60.632812 23.984375 C 59.976562 23.703125 59.339844 23.378906 58.722656 23.015625 C 58.0625 22.664062 57.460938 22.207031 56.941406 21.664062 C 56.492188 21.136719 56.128906 20.539062 55.867188 19.894531 C 54.835938 17.378906 55.527344 14.484375 57.578125 12.703125 C 59.035156 11.414062 61.011719 10.769531 63.507812 10.769531 C 65.59375 10.769531 67.3125 11.230469 68.65625 12.15625 C 69.964844 13.027344 70.925781 14.332031 71.367188 15.84375 L 67.875 17.011719 C 67.523438 16.21875 66.933594 15.5625 66.183594 15.132812 C 65.277344 14.628906 64.253906 14.382812 63.21875 14.417969 C 62.203125 14.359375 61.199219 14.644531 60.363281 15.222656 C 59.667969 15.761719 59.28125 16.605469 59.324219 17.484375 C 59.332031 18.15625 59.621094 18.792969 60.125 19.238281 C 60.609375 19.714844 61.175781 20.097656 61.796875 20.367188 C 62.382812 20.613281 63.265625 20.941406 64.457031 21.355469 C 65.183594 21.621094 65.722656 21.824219 66.074219 21.957031 C 66.425781 22.089844 66.941406 22.316406 67.621094 22.632812 C 68.164062 22.875 68.6875 23.160156 69.183594 23.488281 C 69.628906 23.8125 70.054688 24.160156 70.457031 24.53125 C 70.898438 24.910156 71.273438 25.363281 71.570312 25.863281 C 71.851562 26.382812 72.070312 26.933594 72.222656 27.503906 C 72.410156 28.175781 72.5 28.871094 72.496094 29.566406 C 72.496094 31.953125 71.683594 33.820312 70.058594 35.171875 C 68.433594 36.519531 66.347656 37.195312 63.800781 37.195312 Z M 87.125 36.757812 L 78.390625 11.207031 L 82.46875 11.207031 L 88.253906 29.019531 C 88.574219 29.976562 88.839844 30.953125 89.054688 31.941406 C 89.265625 30.953125 89.535156 29.976562 89.855469 29.019531 L 95.566406 11.207031 L 99.605469 11.207031 L 90.910156 36.757812 Z M 107.320312 36.757812 L 107.320312 11.207031 L 123.113281 11.207031 L 123.113281 14.785156 L 111.105469 14.785156 L 111.105469 21.792969 L 118.855469 21.792969 L 118.855469 25.371094 L 111.105469 25.371094 L 111.105469 33.179688 L 123.914062 33.179688 L 123.914062 36.757812 Z M 133.554688 36.757812 L 133.554688 11.207031 L 137.339844 11.207031 L 137.339844 33.109375 L 149.785156 33.109375 L 149.785156 36.757812 Z M 164.050781 14.855469 L 164.050781 36.757812 L 160.265625 36.757812 L 160.265625 14.855469 L 153.058594 14.855469 L 153.058594 11.207031 L 171.253906 11.207031 L 171.253906 14.855469 Z M 179.078125 36.757812 L 179.078125 11.207031 L 194.871094 11.207031 L 194.871094 14.785156 L 182.863281 14.785156 L 182.863281 21.792969 L 190.613281 21.792969 L 190.613281 25.371094 L 182.863281 25.371094 L 182.863281 33.179688 L 195.671875 33.179688 L 195.671875 36.757812 Z M 179.078125 36.757812 "/>
<path style=" stroke:none;fill-rule:nonzero;fill:rgb(100%,24.313725%,0%);fill-opacity:1;" d="M 37.257812 6.347656 C 32.816406 -0.0273438 24.046875 -1.917969 17.703125 2.136719 L 6.566406 9.253906 C 3.523438 11.175781 1.429688 14.292969 0.792969 17.839844 C 0.261719 20.796875 0.730469 23.847656 2.121094 26.507812 C 1.167969 27.957031 0.519531 29.585938 0.210938 31.296875 C -0.429688 34.914062 0.40625 38.636719 2.535156 41.625 C 6.976562 48.003906 15.75 49.890625 22.089844 45.839844 L 33.226562 38.71875 C 36.269531 36.796875 38.367188 33.683594 39 30.132812 C 39.53125 27.175781 39.066406 24.128906 37.675781 21.46875 C 38.628906 20.015625 39.277344 18.386719 39.585938 16.675781 C 40.226562 13.058594 39.386719 9.335938 37.257812 6.347656 "/>
<path style=" stroke:none;fill-rule:nonzero;fill:rgb(100%,100%,100%);fill-opacity:1;" d="M 16.617188 42.226562 C 13.027344 43.164062 9.234375 41.753906 7.121094 38.695312 C 5.839844 36.898438 5.335938 34.660156 5.722656 32.484375 C 5.789062 32.128906 5.875 31.78125 5.988281 31.441406 L 6.199219 30.800781 L 6.769531 31.21875 C 8.085938 32.191406 9.558594 32.929688 11.125 33.402344 L 11.539062 33.527344 L 11.5 33.941406 C 11.449219 34.53125 11.609375 35.121094 11.949219 35.605469 C 12.585938 36.523438 13.730469 36.949219 14.808594 36.667969 C 15.050781 36.605469 15.28125 36.503906 15.492188 36.367188 L 26.632812 29.246094 C 27.183594 28.898438 27.5625 28.335938 27.679688 27.691406 C 27.792969 27.035156 27.640625 26.363281 27.257812 25.820312 C 26.621094 24.898438 25.476562 24.472656 24.394531 24.753906 C 24.15625 24.820312 23.925781 24.921875 23.714844 25.054688 L 19.464844 27.773438 C 18.765625 28.21875 18 28.554688 17.203125 28.769531 C 13.609375 29.707031 9.820312 28.296875 7.707031 25.238281 C 6.425781 23.441406 5.921875 21.203125 6.308594 19.027344 C 6.6875 16.894531 7.949219 15.019531 9.777344 13.867188 L 20.914062 6.746094 C 21.613281 6.296875 22.378906 5.960938 23.179688 5.746094 C 26.769531 4.8125 30.558594 6.222656 32.675781 9.277344 C 33.953125 11.074219 34.457031 13.316406 34.074219 15.492188 C 34.007812 15.84375 33.917969 16.191406 33.808594 16.535156 L 33.597656 17.175781 L 33.027344 16.753906 C 31.710938 15.785156 30.234375 15.042969 28.667969 14.570312 L 28.253906 14.445312 L 28.292969 14.03125 C 28.34375 13.441406 28.183594 12.851562 27.84375 12.371094 C 27.207031 11.449219 26.066406 11.023438 24.984375 11.304688 C 24.742188 11.371094 24.511719 11.472656 24.300781 11.605469 L 13.164062 18.726562 C 12.613281 19.074219 12.234375 19.640625 12.117188 20.28125 C 12 20.9375 12.152344 21.613281 12.539062 22.15625 C 13.175781 23.074219 14.316406 23.5 15.398438 23.21875 C 15.640625 23.15625 15.871094 23.054688 16.082031 22.917969 L 20.332031 20.199219 C 21.03125 19.753906 21.792969 19.417969 22.59375 19.203125 C 26.183594 18.269531 29.976562 19.675781 32.089844 22.734375 C 33.371094 24.53125 33.875 26.773438 33.488281 28.945312 C 33.105469 31.082031 31.847656 32.953125 30.015625 34.109375 L 18.878906 41.230469 C 18.179688 41.675781 17.417969 42.011719 16.617188 42.226562 "/>
</g>
</svg>
