<?xml version="1.0" encoding="UTF-8"?>
<svg xmlns="http://www.w3.org/2000/svg" xmlns:xlink="http://www.w3.org/1999/xlink" width="119pt" height="32pt" viewBox="0 0 119 32" version="1.1">
<g id="surface1">
<path style=" stroke:none;fill-rule:nonzero;fill:rgb(29.019608%,29.019608%,33.333333%);fill-opacity:1;" d="M 39.527344 23.117188 C 38.414062 23.144531 37.316406 22.832031 36.382812 22.226562 C 35.507812 21.644531 34.859375 20.785156 34.546875 19.78125 L 36.457031 19.074219 C 36.722656 19.691406 37.15625 20.21875 37.707031 20.59375 C 38.265625 20.972656 38.929688 21.167969 39.601562 21.15625 C 40.25 21.1875 40.890625 20.996094 41.410156 20.605469 C 41.867188 20.21875 42.117188 19.636719 42.082031 19.035156 C 42.085938 18.761719 42.023438 18.488281 41.898438 18.242188 C 41.789062 18.023438 41.648438 17.820312 41.476562 17.644531 C 41.261719 17.445312 41.019531 17.285156 40.753906 17.164062 C 40.429688 17 40.160156 16.875 39.945312 16.789062 C 39.730469 16.703125 39.414062 16.589844 38.996094 16.445312 C 38.472656 16.261719 38.078125 16.121094 37.824219 16.015625 C 37.46875 15.863281 37.128906 15.691406 36.796875 15.496094 C 36.441406 15.304688 36.117188 15.0625 35.839844 14.769531 C 35.601562 14.480469 35.40625 14.160156 35.265625 13.8125 C 34.710938 12.460938 35.082031 10.902344 36.183594 9.949219 C 36.964844 9.253906 38.027344 8.910156 39.367188 8.910156 C 40.492188 8.910156 41.414062 9.15625 42.132812 9.652344 C 42.835938 10.121094 43.351562 10.824219 43.589844 11.636719 L 41.714844 12.261719 C 41.523438 11.835938 41.203125 11.484375 40.796875 11.253906 C 40.3125 10.984375 39.761719 10.855469 39.207031 10.875 C 38.664062 10.84375 38.125 10.996094 37.675781 11.304688 C 37.300781 11.597656 37.09375 12.050781 37.121094 12.523438 C 37.121094 12.882812 37.277344 13.226562 37.546875 13.464844 C 37.808594 13.722656 38.113281 13.925781 38.445312 14.074219 C 38.757812 14.203125 39.234375 14.378906 39.871094 14.601562 C 40.261719 14.746094 40.5625 14.855469 40.742188 14.925781 C 40.921875 15 41.199219 15.117188 41.570312 15.289062 C 41.863281 15.417969 42.144531 15.574219 42.414062 15.75 C 42.652344 15.921875 42.882812 16.109375 43.101562 16.308594 C 43.335938 16.515625 43.539062 16.753906 43.699219 17.023438 C 43.851562 17.304688 43.96875 17.601562 44.046875 17.910156 C 44.148438 18.269531 44.199219 18.640625 44.195312 19.015625 C 44.195312 20.300781 43.757812 21.300781 42.886719 22.027344 C 42.011719 22.75 40.894531 23.113281 39.527344 23.117188 Z M 52.050781 22.886719 L 47.363281 9.148438 L 49.550781 9.148438 L 52.65625 18.722656 C 52.828125 19.238281 52.972656 19.761719 53.085938 20.292969 C 53.199219 19.761719 53.34375 19.234375 53.515625 18.722656 L 56.582031 9.148438 L 58.753906 9.148438 L 54.082031 22.882812 Z M 62.894531 22.886719 L 62.894531 9.148438 L 71.378906 9.148438 L 71.378906 11.070312 L 64.925781 11.070312 L 64.925781 14.835938 L 69.089844 14.835938 L 69.089844 16.757812 L 64.925781 16.757812 L 64.925781 20.949219 L 71.804688 20.949219 L 71.804688 22.871094 Z M 76.980469 22.886719 L 76.980469 9.148438 L 79.015625 9.148438 L 79.015625 20.917969 L 85.695312 20.917969 L 85.695312 22.882812 Z M 93.355469 11.113281 L 93.355469 22.882812 L 91.324219 22.882812 L 91.324219 11.109375 L 87.453125 11.109375 L 87.453125 9.148438 L 97.21875 9.148438 L 97.21875 11.109375 Z M 101.425781 22.886719 L 101.425781 9.148438 L 109.910156 9.148438 L 109.910156 11.070312 L 103.457031 11.070312 L 103.457031 14.835938 L 107.617188 14.835938 L 107.617188 16.757812 L 103.457031 16.757812 L 103.457031 20.949219 L 110.335938 20.949219 L 110.335938 22.871094 Z M 101.425781 22.886719 "/>
<path style=" stroke:none;fill-rule:nonzero;fill:rgb(100%,24.313725%,0%);fill-opacity:1;" d="M 25.273438 6.535156 C 22.890625 3.109375 18.179688 2.09375 14.773438 4.273438 L 8.796875 8.097656 C 7.164062 9.128906 6.039062 10.800781 5.695312 12.703125 C 5.410156 14.292969 5.660156 15.933594 6.40625 17.363281 C 5.894531 18.140625 5.546875 19.019531 5.382812 19.9375 C 5.035156 21.882812 5.488281 23.882812 6.632812 25.488281 C 9.015625 28.914062 13.726562 29.929688 17.128906 27.753906 L 23.109375 23.941406 C 24.738281 22.910156 25.863281 21.242188 26.210938 19.339844 C 26.496094 17.75 26.242188 16.109375 25.496094 14.679688 C 26.007812 13.902344 26.359375 13.027344 26.523438 12.105469 C 26.867188 10.164062 26.417969 8.160156 25.273438 6.554688 "/>
<path style=" stroke:none;fill-rule:nonzero;fill:rgb(100%,100%,100%);fill-opacity:1;" d="M 14.191406 25.820312 C 12.261719 26.324219 10.226562 25.566406 9.089844 23.921875 C 8.402344 22.957031 8.132812 21.753906 8.339844 20.582031 C 8.375 20.394531 8.421875 20.210938 8.484375 20.027344 L 8.597656 19.683594 L 8.902344 19.914062 C 9.609375 20.429688 10.398438 20.824219 11.234375 21.078125 L 11.464844 21.144531 L 11.445312 21.375 C 11.421875 21.691406 11.511719 22.003906 11.695312 22.261719 C 12.035156 22.757812 12.648438 22.984375 13.230469 22.832031 C 13.359375 22.796875 13.484375 22.742188 13.597656 22.671875 L 19.566406 18.84375 C 19.863281 18.65625 20.066406 18.355469 20.128906 18.007812 C 20.191406 17.65625 20.109375 17.292969 19.898438 17 C 19.558594 16.507812 18.945312 16.277344 18.363281 16.429688 C 18.234375 16.464844 18.109375 16.519531 17.996094 16.589844 L 15.703125 18.054688 C 15.328125 18.292969 14.917969 18.472656 14.492188 18.585938 C 12.566406 19.085938 10.535156 18.328125 9.402344 16.691406 C 8.714844 15.722656 8.445312 14.519531 8.65625 13.351562 C 8.859375 12.203125 9.535156 11.195312 10.519531 10.574219 L 16.507812 6.75 C 16.882812 6.511719 17.289062 6.332031 17.714844 6.214844 C 19.640625 5.714844 21.675781 6.472656 22.8125 8.113281 C 23.5 9.082031 23.769531 10.285156 23.5625 11.453125 C 23.527344 11.640625 23.480469 11.828125 23.421875 12.011719 L 23.308594 12.359375 L 23.003906 12.128906 C 22.292969 11.605469 21.503906 11.210938 20.664062 10.953125 L 20.433594 10.886719 L 20.453125 10.65625 C 20.480469 10.339844 20.394531 10.023438 20.210938 9.761719 C 19.867188 9.277344 19.257812 9.058594 18.683594 9.207031 C 18.554688 9.242188 18.429688 9.296875 18.316406 9.371094 L 12.335938 13.1875 C 12.039062 13.375 11.835938 13.679688 11.773438 14.023438 C 11.714844 14.378906 11.796875 14.742188 12.003906 15.03125 C 12.34375 15.523438 12.949219 15.75 13.527344 15.605469 C 13.65625 15.570312 13.78125 15.515625 13.894531 15.441406 L 16.1875 13.984375 C 16.5625 13.742188 16.972656 13.5625 17.402344 13.445312 C 19.328125 12.941406 21.367188 13.699219 22.5 15.34375 C 23.1875 16.308594 23.460938 17.511719 23.253906 18.683594 C 23.046875 19.828125 22.371094 20.835938 21.386719 21.457031 L 15.40625 25.285156 C 15.03125 25.523438 14.621094 25.703125 14.191406 25.820312 "/>
</g>
</svg>
