<?xml version="1.0" encoding="UTF-8"?>
<svg xmlns="http://www.w3.org/2000/svg" xmlns:xlink="http://www.w3.org/1999/xlink" width="20pt" height="23pt" viewBox="0 0 20 23" version="1.1">
<g id="surface1">
<path style=" stroke:none;fill-rule:nonzero;fill:rgb(100%,24.313725%,0%);fill-opacity:1;" d="M 18.585938 3.070312 C 16.371094 0.0234375 11.996094 -0.875 8.832031 1.058594 L 3.273438 4.460938 C 1.753906 5.375 0.707031 6.863281 0.386719 8.558594 C 0.320312 8.9375 0.285156 9.324219 0.28125 9.707031 C 0.285156 10.75 0.550781 11.777344 1.058594 12.703125 C 0.582031 13.394531 0.257812 14.175781 0.101562 14.992188 C -0.210938 16.71875 0.207031 18.5 1.269531 19.929688 C 3.488281 22.976562 7.871094 23.875 11.023438 21.941406 L 16.574219 18.539062 C 18.09375 17.621094 19.140625 16.128906 19.457031 14.433594 C 19.527344 14.058594 19.5625 13.675781 19.5625 13.292969 C 19.558594 12.25 19.296875 11.222656 18.792969 10.296875 C 19.269531 9.605469 19.59375 8.828125 19.75 8.011719 C 19.816406 7.632812 19.851562 7.253906 19.851562 6.867188 C 19.851562 5.507812 19.410156 4.179688 18.585938 3.074219 Z M 18.585938 3.070312 Z M 18.585938 3.070312 "/>
<path style=" stroke:none;fill-rule:nonzero;fill:rgb(100%,100%,100%);fill-opacity:1;" d="M 8.289062 20.214844 C 7.925781 20.304688 7.554688 20.351562 7.179688 20.351562 C 5.730469 20.351562 4.375 19.671875 3.554688 18.527344 C 3.054688 17.863281 2.792969 17.0625 2.792969 16.246094 C 2.792969 16.015625 2.8125 15.789062 2.855469 15.558594 C 2.886719 15.386719 2.933594 15.226562 2.988281 15.058594 L 3.09375 14.753906 L 3.378906 14.960938 C 4.035156 15.429688 4.769531 15.777344 5.550781 16.007812 L 5.757812 16.066406 L 5.734375 16.265625 C 5.734375 16.296875 5.734375 16.332031 5.734375 16.367188 C 5.734375 16.613281 5.816406 16.855469 5.96875 17.054688 C 6.210938 17.40625 6.621094 17.613281 7.058594 17.617188 C 7.167969 17.617188 7.28125 17.605469 7.394531 17.574219 C 7.515625 17.542969 7.625 17.496094 7.734375 17.433594 L 13.285156 14.011719 C 13.625 13.804688 13.828125 13.449219 13.824219 13.0625 C 13.824219 12.816406 13.742188 12.574219 13.589844 12.375 C 13.339844 12.03125 12.933594 11.824219 12.496094 11.824219 C 12.386719 11.824219 12.273438 11.839844 12.164062 11.867188 C 12.042969 11.894531 11.929688 11.945312 11.824219 12.011719 L 9.707031 13.3125 C 9.359375 13.523438 8.980469 13.679688 8.578125 13.785156 C 8.21875 13.875 7.84375 13.921875 7.46875 13.921875 C 6.023438 13.921875 4.667969 13.242188 3.847656 12.097656 C 3.347656 11.433594 3.082031 10.636719 3.082031 9.816406 C 3.082031 9.589844 3.105469 9.359375 3.144531 9.128906 C 3.335938 8.109375 3.964844 7.214844 4.878906 6.664062 L 10.433594 3.261719 C 10.78125 3.050781 11.164062 2.890625 11.5625 2.785156 C 11.925781 2.695312 12.300781 2.652344 12.671875 2.652344 C 14.121094 2.648438 15.480469 3.328125 16.308594 4.472656 C 16.800781 5.136719 17.0625 5.9375 17.0625 6.753906 C 17.0625 6.984375 17.039062 7.214844 16.996094 7.441406 C 16.964844 7.613281 16.921875 7.777344 16.867188 7.941406 L 16.757812 8.246094 L 16.476562 8.046875 C 15.816406 7.582031 15.085938 7.230469 14.300781 7.003906 L 14.097656 6.941406 L 14.117188 6.742188 C 14.117188 6.710938 14.117188 6.671875 14.117188 6.640625 C 14.117188 6.394531 14.035156 6.152344 13.882812 5.949219 C 13.636719 5.605469 13.230469 5.398438 12.796875 5.398438 C 12.683594 5.402344 12.570312 5.417969 12.464844 5.449219 C 12.34375 5.476562 12.226562 5.527344 12.125 5.59375 L 6.566406 8.992188 C 6.289062 9.160156 6.101562 9.429688 6.046875 9.738281 C 6.027344 9.804688 6.023438 9.867188 6.019531 9.9375 C 6.015625 10.183594 6.101562 10.425781 6.25 10.625 C 6.496094 10.96875 6.90625 11.175781 7.339844 11.175781 C 7.453125 11.175781 7.566406 11.160156 7.675781 11.132812 C 7.796875 11.105469 7.910156 11.054688 8.011719 10.988281 L 10.136719 9.683594 C 10.484375 9.46875 10.867188 9.308594 11.265625 9.207031 C 11.625 9.117188 12 9.070312 12.375 9.070312 C 13.820312 9.070312 15.175781 9.75 16 10.894531 C 16.496094 11.558594 16.761719 12.355469 16.761719 13.175781 C 16.761719 13.40625 16.742188 13.640625 16.699219 13.871094 C 16.507812 14.890625 15.878906 15.785156 14.964844 16.335938 L 9.417969 19.738281 C 9.070312 19.949219 8.6875 20.109375 8.289062 20.214844 Z M 8.289062 20.214844 Z M 8.289062 20.214844 "/>
</g>
</svg>
