<?xml version="1.0" encoding="UTF-8"?>
<svg xmlns="http://www.w3.org/2000/svg" xmlns:xlink="http://www.w3.org/1999/xlink" width="150pt" height="50pt" viewBox="0 50 150 50" version="1.1">
<g id="surface1">
<path style=" stroke:none;fill-rule:evenodd;fill:rgb(58.039216%,36.078431%,52.941176%);fill-opacity:1;" d="M 4.992188 62.761719 C 5.636719 61.21875 7.246094 60.113281 8.925781 60.113281 C 21.601562 60.113281 34.277344 60.113281 46.980469 60.113281 C 48.082031 60.09375 49.1875 60.507812 49.992188 61.242188 C 50.914062 62.070312 51.441406 63.3125 51.417969 64.554688 C 51.417969 69.410156 51.417969 74.265625 51.417969 79.140625 C 51.394531 81.328125 49.484375 83.304688 47.300781 83.351562 C 42.675781 83.375 38.050781 83.351562 33.429688 83.351562 C 34.050781 84.894531 34.671875 86.410156 35.292969 87.953125 C 32.53125 86.433594 29.816406 84.871094 27.03125 83.375 C 20.957031 83.328125 14.863281 83.375 8.765625 83.351562 C 6.578125 83.28125 4.671875 81.328125 4.648438 79.140625 C 4.625 74.378906 4.648438 69.617188 4.625 64.878906 C 4.625 64.164062 4.691406 63.429688 4.992188 62.761719 "/>
<path style=" stroke:none;fill-rule:evenodd;fill:rgb(100%,100%,100%);fill-opacity:1;" d="M 23.582031 63.105469 C 24.269531 62.371094 25.605469 62.601562 26.136719 63.449219 C 26.410156 63.886719 26.433594 64.484375 26.203125 64.945312 C 25.238281 66.878906 24.824219 69.019531 24.457031 71.113281 C 24.019531 73.851562 23.648438 76.632812 23.789062 79.417969 C 23.835938 80.128906 23.488281 80.980469 22.730469 81.164062 C 22.015625 81.328125 21.351562 80.84375 20.890625 80.335938 C 18.820312 78.105469 17.644531 75.230469 16.792969 72.355469 C 15.941406 74.035156 15.09375 75.734375 14.265625 77.414062 C 13.6875 78.566406 13.066406 79.738281 12.148438 80.660156 C 11.757812 81.050781 11.089844 81.394531 10.582031 81.003906 C 9.824219 80.335938 9.640625 79.277344 9.316406 78.382812 C 8.097656 74.171875 7.40625 69.824219 6.695312 65.5 C 6.535156 64.785156 6.832031 63.910156 7.546875 63.636719 C 8.121094 63.429688 8.878906 63.382812 9.363281 63.820312 C 9.707031 64.117188 9.800781 64.601562 9.871094 65.039062 C 10.375 68.398438 10.949219 71.734375 11.777344 75.023438 C 13.160156 72.398438 14.539062 69.777344 15.921875 67.132812 C 16.128906 66.742188 16.378906 66.351562 16.75 66.121094 C 17.253906 65.796875 17.992188 65.820312 18.429688 66.28125 C 18.773438 66.648438 18.910156 67.179688 19.003906 67.660156 C 19.417969 69.824219 19.96875 71.984375 20.773438 74.035156 C 21.121094 70.929688 21.558594 67.777344 22.683594 64.855469 C 22.9375 64.234375 23.167969 63.613281 23.582031 63.105469 M 31.378906 64.785156 C 32.875 64.601562 34.484375 65.105469 35.5 66.234375 C 36.328125 67.179688 36.785156 68.398438 36.949219 69.617188 C 37.199219 71.710938 36.808594 73.917969 35.796875 75.78125 C 35.222656 76.839844 34.484375 77.875 33.429688 78.496094 C 31.886719 79.441406 29.816406 79.324219 28.320312 78.335938 C 27.125 77.507812 26.457031 76.128906 26.179688 74.746094 C 25.628906 71.59375 26.570312 68.097656 28.941406 65.914062 C 29.632812 65.292969 30.484375 64.898438 31.378906 64.785156 M 31.679688 68.007812 C 30.964844 68.234375 30.507812 68.902344 30.113281 69.5 C 29.148438 71.066406 28.871094 73.113281 29.65625 74.792969 C 29.863281 75.230469 30.183594 75.714844 30.714844 75.804688 C 31.265625 75.898438 31.769531 75.574219 32.164062 75.230469 C 33.035156 74.472656 33.472656 73.34375 33.703125 72.214844 C 33.933594 70.949219 33.820312 69.546875 33.082031 68.441406 C 32.785156 68.027344 32.1875 67.84375 31.679688 68.007812 M 43.320312 64.785156 C 44.769531 64.601562 46.355469 65.0625 47.371094 66.144531 C 48.289062 67.132812 48.773438 68.441406 48.910156 69.777344 C 49.117188 71.800781 48.75 73.917969 47.785156 75.714844 C 47.207031 76.792969 46.449219 77.851562 45.34375 78.496094 C 43.871094 79.394531 41.894531 79.300781 40.421875 78.429688 C 39.433594 77.828125 38.765625 76.816406 38.375 75.734375 C 37.339844 72.445312 38.214844 68.582031 40.605469 66.097656 C 41.386719 65.40625 42.332031 64.898438 43.320312 64.785156 M 43.644531 68.007812 C 42.859375 68.28125 42.398438 69.042969 41.984375 69.707031 C 41.113281 71.25 40.882812 73.25 41.6875 74.886719 C 41.894531 75.34375 42.285156 75.78125 42.8125 75.804688 C 43.390625 75.828125 43.894531 75.460938 44.308594 75.070312 C 45.207031 74.195312 45.597656 72.953125 45.734375 71.734375 C 45.875 70.605469 45.691406 69.386719 45.023438 68.421875 C 44.746094 68.027344 44.148438 67.84375 43.644531 68.007812 "/>
<path style=" stroke:none;fill-rule:evenodd;fill:rgb(0%,0%,0%);fill-opacity:1;" d="M 59.285156 65.222656 C 60.550781 64.945312 61.886719 64.96875 63.152344 65.269531 C 63.152344 66.304688 63.152344 67.339844 63.152344 68.375 C 62.117188 68.121094 60.941406 67.890625 59.953125 68.375 C 58.757812 68.972656 58.089844 70.328125 58.089844 71.617188 C 58.019531 72.90625 58.457031 74.355469 59.609375 75.09375 C 60.667969 75.78125 62.023438 75.644531 63.175781 75.320312 C 63.175781 76.355469 63.175781 77.394531 63.175781 78.429688 C 61.632812 78.863281 59.953125 78.820312 58.457031 78.265625 C 56.664062 77.601562 55.238281 76.035156 54.6875 74.195312 C 54.269531 72.792969 54.226562 71.296875 54.546875 69.871094 C 55.078125 67.59375 57.007812 65.730469 59.285156 65.222656 M 68.628906 65.0625 C 70.191406 64.878906 71.894531 65.128906 73.160156 66.121094 C 74.378906 67.0625 74.976562 68.605469 75.207031 70.078125 C 75.414062 71.710938 75.367188 73.414062 74.863281 74.976562 C 74.425781 76.3125 73.527344 77.554688 72.238281 78.175781 C 70.929688 78.796875 69.386719 78.84375 67.984375 78.519531 C 66.695312 78.222656 65.542969 77.371094 64.898438 76.195312 C 64.003906 74.632812 63.84375 72.769531 63.910156 70.996094 C 63.980469 69.480469 64.371094 67.890625 65.382812 66.71875 C 66.210938 65.773438 67.40625 65.199219 68.628906 65.0625 M 69.109375 68.027344 C 68.441406 68.191406 68.050781 68.855469 67.890625 69.480469 C 67.570312 70.722656 67.613281 72.007812 67.707031 73.273438 C 67.800781 73.964844 67.867188 74.699219 68.351562 75.253906 C 68.996094 75.988281 70.308594 75.898438 70.882812 75.136719 C 71.273438 74.65625 71.386719 74.035156 71.457031 73.4375 C 71.59375 72.378906 71.617188 71.296875 71.457031 70.238281 C 71.34375 69.59375 71.15625 68.925781 70.699219 68.441406 C 70.285156 68.027344 69.664062 67.890625 69.109375 68.027344 M 130.46875 65.269531 C 131.800781 64.921875 133.207031 64.96875 134.539062 65.246094 C 134.5625 66.28125 134.539062 67.316406 134.5625 68.375 C 133.550781 68.121094 132.421875 67.890625 131.433594 68.328125 C 130.285156 68.855469 129.59375 70.078125 129.5 71.296875 C 129.363281 72.675781 129.730469 74.242188 130.949219 75.046875 C 132.007812 75.78125 133.390625 75.644531 134.5625 75.300781 C 134.539062 76.335938 134.585938 77.394531 134.539062 78.429688 C 132.90625 78.84375 131.113281 78.796875 129.570312 78.128906 C 127.867188 77.394531 126.535156 75.828125 126.050781 74.035156 C 125.683594 72.652344 125.636719 71.179688 125.980469 69.777344 C 126.488281 67.613281 128.304688 65.84375 130.46875 65.269531 M 77.253906 65.359375 C 78.726562 65.359375 80.222656 65.359375 81.695312 65.359375 C 82.222656 67.753906 82.730469 70.167969 83.191406 72.585938 C 83.605469 70.144531 84.179688 67.753906 84.753906 65.359375 C 86.273438 65.359375 87.792969 65.359375 89.308594 65.359375 C 89.90625 69.707031 90.484375 74.058594 91.058594 78.382812 C 89.90625 78.382812 88.734375 78.382812 87.585938 78.382812 C 87.261719 75.414062 86.984375 72.421875 86.640625 69.457031 C 85.929688 72.421875 85.191406 75.414062 84.480469 78.382812 C 83.695312 78.382812 82.890625 78.382812 82.109375 78.382812 C 81.351562 75.414062 80.613281 72.421875 79.832031 69.433594 C 79.53125 72.398438 79.234375 75.390625 78.933594 78.382812 C 77.828125 78.382812 76.726562 78.382812 75.597656 78.382812 C 76.148438 74.058594 76.703125 69.707031 77.253906 65.359375 M 93.175781 65.359375 C 94.648438 65.359375 96.144531 65.359375 97.613281 65.359375 C 98.144531 67.753906 98.648438 70.167969 99.109375 72.585938 C 99.546875 70.167969 100.101562 67.753906 100.675781 65.359375 L 105.207031 65.359375 C 105.804688 69.707031 106.378906 74.058594 106.957031 78.382812 C 105.804688 78.382812 104.632812 78.382812 103.480469 78.382812 C 103.160156 75.414062 102.859375 72.421875 102.539062 69.457031 C 101.824219 72.421875 101.113281 75.414062 100.375 78.382812 C 99.59375 78.382812 98.789062 78.382812 98.007812 78.382812 C 97.246094 75.390625 96.488281 72.421875 95.730469 69.433594 C 95.429688 72.421875 95.128906 75.390625 94.832031 78.382812 C 93.726562 78.382812 92.621094 78.382812 91.496094 78.382812 C 92.070312 74.058594 92.621094 69.707031 93.175781 65.359375 M 107.96875 65.40625 C 110.335938 65.359375 112.730469 65.40625 115.101562 65.382812 C 115.101562 66.304688 115.101562 67.222656 115.101562 68.167969 C 113.902344 68.191406 112.707031 68.167969 111.511719 68.167969 C 111.511719 68.972656 111.511719 69.753906 111.511719 70.558594 C 112.546875 70.558594 113.582031 70.558594 114.617188 70.558594 C 114.617188 71.457031 114.617188 72.355469 114.617188 73.25 C 113.582031 73.25 112.546875 73.25 111.511719 73.25 C 111.511719 74.035156 111.511719 74.839844 111.511719 75.644531 C 112.707031 75.644531 113.925781 75.644531 115.121094 75.644531 C 115.121094 76.5625 115.121094 77.484375 115.121094 78.429688 C 112.753906 78.429688 110.359375 78.429688 107.992188 78.429688 C 107.96875 74.078125 108.015625 69.753906 107.96875 65.40625 M 116.113281 65.359375 C 117.605469 65.359375 119.078125 65.335938 120.574219 65.359375 C 121.980469 65.40625 123.472656 65.75 124.507812 66.742188 C 125.453125 67.613281 125.773438 69.0625 125.40625 70.285156 C 125.105469 71.273438 124.371094 72.078125 123.449219 72.515625 C 124.371094 74.472656 125.3125 76.425781 126.257812 78.382812 C 125.015625 78.382812 123.773438 78.382812 122.554688 78.382812 C 121.585938 76.378906 120.644531 74.378906 119.65625 72.398438 C 119.632812 74.402344 119.65625 76.402344 119.65625 78.382812 C 118.480469 78.382812 117.308594 78.382812 116.136719 78.382812 C 116.113281 74.058594 116.113281 69.707031 116.113281 65.359375 M 119.632812 67.867188 C 119.632812 68.902344 119.632812 69.9375 119.632812 70.972656 C 120.277344 70.929688 120.964844 70.90625 121.496094 70.515625 C 122.117188 70.054688 122.046875 69.109375 121.65625 68.511719 C 121.171875 67.9375 120.320312 67.9375 119.632812 67.867188 M 135.550781 65.382812 C 137.921875 65.382812 140.292969 65.382812 142.660156 65.382812 C 142.660156 66.304688 142.660156 67.246094 142.660156 68.167969 C 141.464844 68.167969 140.246094 68.167969 139.050781 68.167969 C 139.050781 68.972656 139.050781 69.753906 139.050781 70.558594 C 140.085938 70.558594 141.121094 70.558594 142.15625 70.558594 C 142.15625 71.457031 142.15625 72.355469 142.15625 73.25 L 139.050781 73.25 C 139.050781 74.058594 139.050781 74.839844 139.050781 75.644531 C 140.269531 75.644531 141.464844 75.644531 142.683594 75.644531 C 142.683594 76.5625 142.683594 77.484375 142.683594 78.429688 C 140.3125 78.429688 137.921875 78.429688 135.550781 78.429688 C 135.527344 74.058594 135.550781 69.707031 135.550781 65.382812 "/>
</g>
</svg>
