<?xml version="1.0" encoding="UTF-8"?>
<svg xmlns="http://www.w3.org/2000/svg" xmlns:xlink="http://www.w3.org/1999/xlink" width="48pt" height="48pt" viewBox="0 0 48 48" version="1.1">
<g id="surface1">
<path style=" stroke:none;fill-rule:nonzero;fill:rgb(19.607843%,21.568627%,23.529412%);fill-opacity:1;" d="M 24 0 C 10.746094 0 0 10.746094 0 24 C 0 37.253906 10.746094 48 24 48 C 37.253906 48 48 37.253906 48 24 C 48 10.746094 37.253906 0 24 0 Z M 41.550781 14.40625 C 41.636719 15.042969 41.683594 15.726562 41.683594 16.460938 C 41.683594 18.488281 41.304688 20.769531 40.164062 23.625 L 34.054688 41.285156 C 40 37.820312 44 31.375 44 24 C 44 20.523438 43.113281 17.253906 41.550781 14.40625 Z M 24.351562 25.75 L 18.351562 43.1875 C 20.144531 43.714844 22.039062 44.003906 24 44.003906 C 26.328125 44.003906 28.5625 43.601562 30.640625 42.871094 C 30.585938 42.785156 30.539062 42.695312 30.496094 42.59375 Z M 37.5 22.992188 C 37.5 20.519531 36.613281 18.808594 35.851562 17.476562 C 34.835938 15.828125 33.886719 14.433594 33.886719 12.785156 C 33.886719 10.945312 35.28125 9.234375 37.246094 9.234375 C 37.335938 9.234375 37.417969 9.246094 37.503906 9.25 C 33.945312 5.988281 29.203125 4 24 4 C 17.011719 4 10.867188 7.585938 7.289062 13.015625 C 7.757812 13.03125 8.199219 13.039062 8.578125 13.039062 C 10.667969 13.039062 13.910156 12.785156 13.910156 12.785156 C 14.988281 12.722656 15.113281 14.304688 14.039062 14.433594 C 14.039062 14.433594 12.957031 14.558594 11.75 14.625 L 19.03125 36.289062 L 23.410156 23.164062 L 20.292969 14.625 C 19.214844 14.5625 18.195312 14.433594 18.195312 14.433594 C 17.117188 14.371094 17.242188 12.722656 18.320312 12.785156 C 18.320312 12.785156 21.621094 13.039062 23.585938 13.039062 C 25.675781 13.039062 28.917969 12.785156 28.917969 12.785156 C 29.996094 12.722656 30.121094 14.304688 29.046875 14.433594 C 29.046875 14.433594 27.960938 14.558594 26.757812 14.625 L 33.984375 36.121094 L 36.046875 29.582031 C 36.964844 26.726562 37.5 24.703125 37.5 22.992188 Z M 4 24 C 4 31.917969 8.601562 38.757812 15.273438 42 L 5.730469 15.859375 C 4.621094 18.347656 4 21.097656 4 24 Z M 24 1.441406 C 27.046875 1.441406 30 2.039062 32.78125 3.214844 C 34.117188 3.78125 35.40625 4.480469 36.613281 5.292969 C 37.808594 6.101562 38.933594 7.027344 39.953125 8.046875 C 40.972656 9.066406 41.902344 10.191406 42.707031 11.386719 C 43.523438 12.59375 44.222656 13.882812 44.785156 15.21875 C 45.960938 18 46.558594 20.953125 46.558594 24 C 46.558594 27.046875 45.960938 30 44.785156 32.78125 C 44.21875 34.117188 43.519531 35.40625 42.707031 36.613281 C 41.898438 37.808594 40.972656 38.933594 39.953125 39.953125 C 38.933594 40.972656 37.808594 41.902344 36.613281 42.707031 C 35.40625 43.523438 34.117188 44.222656 32.78125 44.785156 C 30 45.960938 27.046875 46.558594 24 46.558594 C 20.953125 46.558594 18 45.960938 15.21875 44.785156 C 13.882812 44.21875 12.59375 43.519531 11.386719 42.707031 C 10.191406 41.898438 9.066406 40.972656 8.046875 39.953125 C 7.027344 38.933594 6.097656 37.808594 5.292969 36.613281 C 4.476562 35.40625 3.777344 34.117188 3.214844 32.78125 C 2.035156 30 1.441406 27.046875 1.441406 24 C 1.441406 20.953125 2.039062 18 3.214844 15.21875 C 3.78125 13.882812 4.480469 12.59375 5.292969 11.386719 C 6.101562 10.191406 7.027344 9.066406 8.046875 8.046875 C 9.066406 7.027344 10.191406 6.097656 11.386719 5.292969 C 12.59375 4.476562 13.882812 3.777344 15.21875 3.214844 C 18 2.035156 20.953125 1.441406 24 1.441406 Z M 24 1.441406 "/>
</g>
</svg>
